<svg xmlns="http://www.w3.org/2000/svg" width="13" height="16" viewBox="0 0 13 16">
<path fill-rule="evenodd" d="m2.01 11h-0.72c-0.3 0.19-0.58 0.25-1.03 0.34v0.66h0.75v2.14h-0.84v0.86h2.84v-0.86h-1zm0.17-8.06v-0.03c0.44-0.19 0.64-0.47 0.64-0.86 0-0.7-0.56-1.11-1.44-1.11-0.48 0-0.89 0.19-1.28 0.52l0.55 0.64c0.25-0.2 0.44-0.31 0.69-0.31 0.27 0 0.42 0.13 0.42 0.36 0 0.27-0.2 0.44-0.86 0.44v0.75c0.83 0 0.98 0.17 0.98 0.47 0 0.25-0.23 0.38-0.58 0.38-0.28 0-0.56-0.14-0.81-0.38l-0.48 0.66c0.3 0.36 0.77 0.56 1.41 0.56 0.83 0 1.53-0.41 1.53-1.16 0-0.5-0.31-0.81-0.77-0.94zm9.83 10.06c0 0.59 0 1-0.59 1h-6.82c-0.59 0-0.59-0.41-0.59-1s0-1 0.59-1h6.81c0.59 0 0.59 0.41 0.59 1zm-7.41-9h6.81c0.59 0 0.59-0.41 0.59-1s0-1-0.59-1h-6.81c-0.59 0-0.59 0.41-0.59 1s0 1 0.59 1zm6.81 3h-6.81c-0.59 0-0.59 0.41-0.59 1s0 1 0.59 1h6.81c0.59 0 0.59-0.41 0.59-1s0-1-0.59-1zm-9.008 2.12c-0.129 0-0.592 0.04-0.802 0.07 0.53-0.56 1.14-1.25 1.14-1.89-0.02-0.78-0.56-1.3-1.36-1.3-0.59 0-0.97 0.2-1.38 0.64l0.58 0.58c0.19-0.19 0.38-0.38 0.64-0.38 0.28 0 0.48 0.16 0.48 0.52 0 0.53-0.77 1.2-1.7 2.06v0.58h3v-0.88z"/>
</svg>
