/* XPM */
static const char *icon_xpm[] = {
"64 64 624 2",
"  	c None",
". 	c #000000",
"+ 	c #2B2B4C",
"@ 	c #55559C",
"# 	c #5A5AA7",
"$ 	c #484885",
"% 	c #2E2E57",
"& 	c #1C1C32",
"* 	c #50508C",
"= 	c #6565B5",
"- 	c #6060B2",
"; 	c #5D5DB0",
"> 	c #5A5AAD",
", 	c #5454A2",
"' 	c #424283",
") 	c #2B2B5C",
"! 	c #00001C",
"~ 	c #000015",
"{ 	c #444477",
"] 	c #6363B2",
"^ 	c #6767B8",
"/ 	c #6565B6",
"( 	c #6262B4",
"_ 	c #5F5FB1",
": 	c #5C5CAE",
"< 	c #5959AB",
"[ 	c #5555A8",
"} 	c #5050A5",
"| 	c #4C4CA1",
"1 	c #46469A",
"2 	c #3B3B81",
"3 	c #27275F",
"4 	c #151527",
"5 	c #38385D",
"6 	c #6262A8",
"7 	c #6A6ABB",
"8 	c #6767B9",
"9 	c #6666B7",
"0 	c #6363B4",
"a 	c #5555AA",
"b 	c #5454A7",
"c 	c #4E4EA3",
"d 	c #4A4AA0",
"e 	c #46469D",
"f 	c #44449A",
"g 	c #424297",
"h 	c #3D3D93",
"i 	c #32327F",
"j 	c #272760",
"k 	c #151532",
"l 	c #272742",
"m 	c #59599A",
"n 	c #6D6DBC",
"o 	c #6B6BBB",
"p 	c #6969BA",
"q 	c #6262B3",
"r 	c #48489E",
"s 	c #46469B",
"t 	c #424298",
"u 	c #404096",
"v 	c #3D3D94",
"w 	c #3B3B92",
"x 	c #383890",
"y 	c #35358D",
"z 	c #2E2E7D",
"A 	c #222262",
"B 	c #15153B",
"C 	c #151522",
"D 	c #4E4E86",
"E 	c #6D6DB9",
"F 	c #6E6EBD",
"G 	c #6A6ABA",
"H 	c #5D5DAF",
"I 	c #5454A6",
"J 	c #4A4A9F",
"K 	c #3D3D95",
"L 	c #383891",
"M 	c #38388F",
"N 	c #32328C",
"O 	c #2E2E8E",
"P 	c #2222A1",
"Q 	c #42426E",
"R 	c #6A6AB3",
"S 	c #6F6FBF",
"T 	c #6E6EBE",
"U 	c #6D6DBD",
"V 	c #6969B9",
"W 	c #6767B7",
"X 	c #5A5AAE",
"Y 	c #44449B",
"Z 	c #3B3B91",
"` 	c #35358E",
" .	c #35358C",
"..	c #2B2B96",
"+.	c #2222A8",
"@.	c #1C1CAB",
"#.	c #3D3D86",
"$.	c #5A5AA3",
"%.	c #6A6AB8",
"&.	c #6666B6",
"*.	c #5A5AAC",
"=.	c #5555A9",
"-.	c #5252A6",
";.	c #46469C",
">.	c #424299",
",.	c #404097",
"'.	c #38388E",
").	c #323290",
"!.	c #2222A0",
"~.	c #1515AB",
"{.	c #2B2B75",
"].	c #272773",
"^.	c #2B2B74",
"/.	c #44448E",
"(.	c #5C5CA7",
"_.	c #6060B3",
":.	c #5454A8",
"<.	c #5050A4",
"[.	c #404095",
"}.	c #2B2B97",
"|.	c #1C1CA8",
"1.	c #1515AA",
"2.	c #2E2EAB",
"3.	c #9492B2",
"4.	c #1C1CAC",
"5.	c #2B2B76",
"6.	c #272772",
"7.	c #222270",
"8.	c #2E2E76",
"9.	c #484892",
"0.	c #5A5AAA",
"a.	c #5959AC",
"b.	c #4E4EA2",
"c.	c #353593",
"d.	c #2727A1",
"e.	c #4C4AAC",
"f.	c #A6A4B3",
"g.	c #B8B5B5",
"h.	c #2E2E77",
"i.	c #22226E",
"j.	c #1C1C6D",
"k.	c #32327C",
"l.	c #484894",
"m.	c #48489D",
"n.	c #32329A",
"o.	c #6967AD",
"p.	c #B2AFB4",
"q.	c #1C1CAD",
"r.	c #2E2E78",
"s.	c #B4B2BA",
"t.	c #706F8F",
"u.	c #1C1C6A",
"v.	c #35357F",
"w.	c #404092",
"x.	c #4A4A9E",
"y.	c #3B3B96",
"z.	c #2727A3",
"A.	c #1C1CAA",
"B.	c #8584B0",
"C.	c #B7B4B4",
"D.	c #B0AEB4",
"E.	c #726FAF",
"F.	c #2E2E7A",
"G.	c #CDC9C9",
"H.	c #CAC6C6",
"I.	c #1C1C69",
"J.	c #151567",
"K.	c #1C1C6B",
"L.	c #3D3D90",
"M.	c #32329C",
"N.	c #3B38AA",
"O.	c #9D9CB2",
"P.	c #B7B5B5",
"Q.	c #9997B2",
"R.	c #4040AD",
"S.	c #2222AE",
"T.	c #32327B",
"U.	c #CCC9C9",
"V.	c #C9C6C6",
"W.	c #151566",
"X.	c #151565",
"Y.	c #5A59AD",
"Z.	c #ACAAB4",
"`.	c #2222AF",
" +	c #CCC8C8",
".+	c #C9C5C5",
"++	c #7777AF",
"@+	c #B4B2B4",
"#+	c #2727B0",
"$+	c #35357D",
"%+	c #B6B5B5",
"&+	c #7675AF",
"*+	c #2222AD",
"=+	c #35357E",
"-+	c #CBC7C7",
";+	c #C8C4C4",
">+	c #A8A6B3",
",+	c #5454AD",
"'+	c #2B2BB1",
")+	c #9493B2",
"!+	c #3232AB",
"~+	c #2727B1",
"{+	c #2B2BB2",
"]+	c #38387F",
"^+	c #CAC7C7",
"/+	c #2E2EB3",
"(+	c #383880",
"_+	c #C7C3C3",
":+	c #2E2EB4",
"<+	c #383881",
"[+	c #2B2BB3",
"}+	c #3232B5",
"|+	c #000027",
"1+	c #C6C2C2",
"2+	c #3535B6",
"3+	c #1C1C73",
"4+	c #151562",
"5+	c #151544",
"6+	c #3B3B6B",
"7+	c #3B3B82",
"8+	c #B0ADB4",
"9+	c #7C7897",
"0+	c #3B3B7F",
"a+	c #2B2B77",
"b+	c #1C1C74",
"c+	c #1C1C6F",
"d+	c #151559",
"e+	c #000035",
"f+	c #22223B",
"g+	c #505094",
"h+	c #C3BFBF",
"i+	c #C2BDBD",
"j+	c #B6B1B5",
"k+	c #87859C",
"l+	c #464681",
"m+	c #8987B4",
"n+	c #3535B2",
"o+	c #222275",
"p+	c #1C1C75",
"q+	c #464697",
"r+	c #4E4E9B",
"s+	c #3B3B75",
"t+	c #1C1C38",
"u+	c #3D3D6D",
"v+	c #5D5DAB",
"w+	c #6060B1",
"x+	c #706E94",
"y+	c #A8A4AF",
"z+	c #C2BEBE",
"A+	c #C1BDBD",
"B+	c #C0BBBB",
"C+	c #BEB9B9",
"D+	c #B8B3B5",
"E+	c #9390A0",
"F+	c #545284",
"G+	c #8886B4",
"H+	c #3232A7",
"I+	c #151550",
"J+	c #15155D",
"K+	c #27277A",
"L+	c #4C4C9F",
"M+	c #5757AA",
"N+	c #484890",
"O+	c #323265",
"P+	c #545495",
"Q+	c #6565B3",
"R+	c #6262B2",
"S+	c #1C1C42",
"T+	c #32326B",
"U+	c #5F5D8C",
"V+	c #9B97A7",
"W+	c #BCB8B9",
"X+	c #BDB8B8",
"Y+	c #BCB7B7",
"Z+	c #BAB4B5",
"`+	c #9C98A4",
" @	c #65638A",
".@	c #2B2B92",
"+@	c #00002B",
"@@	c #000032",
"#@	c #2E2E80",
"$@	c #5252A4",
"%@	c #5454A4",
"&@	c #272750",
"*@	c #40406E",
"=@	c #6262AD",
"-@	c #5D5DB1",
";@	c #5C5CB0",
">@	c #40407C",
",@	c #15152E",
"'@	c #2B2B62",
")@	c #38387E",
"!@	c #4E4C86",
"~@	c #8E8BA0",
"{@	c #B5B2B4",
"]@	c #BBB7B7",
"^@	c #BBB6B6",
"/@	c #BAB5B5",
"(@	c #32327A",
"_@	c #3232B1",
":@	c #222274",
"<@	c #00004A",
"[@	c #1C1C72",
"}@	c #383889",
"|@	c #5757A9",
"1@	c #555597",
"2@	c #6767B4",
"3@	c #6666B3",
"4@	c #5A5AAF",
"5@	c #5959AE",
"6@	c #5454AA",
"7@	c #424288",
"8@	c #222248",
"9@	c #272757",
"0@	c #353577",
"a@	c #444282",
"b@	c #817E97",
"c@	c #AFAAAF",
"d@	c #2B2BA6",
"e@	c #151574",
"f@	c #424293",
"g@	c #2E2E70",
"h@	c #000054",
"i@	c #6565AE",
"j@	c #6666B4",
"k@	c #5757AE",
"l@	c #5050AB",
"m@	c #4E4EAA",
"n@	c #404090",
"o@	c #27275D",
"p@	c #2E2E6E",
"q@	c #747292",
"r@	c #A7A2AA",
"s@	c #272791",
"t@	c #15156A",
"u@	c #1C1C77",
"v@	c #4C4C9C",
"w@	c #5050A0",
"x@	c #222263",
"y@	c #000055",
"z@	c #3B3BA8",
"A@	c #5959AF",
"B@	c #5555AD",
"C@	c #5454AC",
"D@	c #4C4CA9",
"E@	c #4848A8",
"F@	c #4444A6",
"G@	c #3D3D98",
"H@	c #27276D",
"I@	c #000022",
"J@	c #151538",
"K@	c #2B2B65",
"L@	c #38387D",
"M@	c #35357C",
"N@	c #2B2BAF",
"O@	c #151572",
"P@	c #27277D",
"Q@	c #5050A3",
"R@	c #4C4C98",
"S@	c #15155A",
"T@	c #736F80",
"U@	c #000059",
"V@	c #1C1CA5",
"W@	c #1C1CA4",
"X@	c #2E2EA4",
"Y@	c #4A4AA9",
"Z@	c #4646A7",
"`@	c #4242A6",
" #	c #4040A4",
".#	c #3B3BA2",
"+#	c #272777",
"@#	c #27275A",
"##	c #323277",
"$#	c #2727A4",
"%#	c #15154E",
"&#	c #323284",
"*#	c #44448C",
"=#	c #000052",
"-#	c #87848F",
";#	c #8C8893",
">#	c #00005C",
",#	c #1C1CA2",
"'#	c #1C1C9F",
")#	c #22229D",
"!#	c #4242A2",
"~#	c #5555AC",
"{#	c #4242A5",
"]#	c #3D3DA3",
"^#	c #3838A1",
"/#	c #3535A0",
"(#	c #2E2E9E",
"_#	c #2B2B9B",
":#	c #222280",
"<#	c #000044",
"[#	c #22224E",
"}#	c #2E2E6F",
"|#	c #222290",
"1#	c #151573",
"2#	c #3D3D8F",
"3#	c #3B3B7D",
"4#	c #00004E",
"5#	c #000050",
"6#	c #5F5C73",
"7#	c #5F5C76",
"8#	c #00005D",
"9#	c #1C1CA0",
"0#	c #1C1C9C",
"a#	c #1C1C98",
"b#	c #1C1C92",
"c#	c #353597",
"d#	c #4C4CA4",
"e#	c #5252AC",
"f#	c #32329F",
"g#	c #2E2E9D",
"h#	c #222285",
"i#	c #000048",
"j#	c #00003B",
"k#	c #151560",
"l#	c #444496",
"m#	c #2E2E6D",
"n#	c #9C989E",
"o#	c #B2ADAF",
"p#	c #15155F",
"q#	c #000060",
"r#	c #CFCEDA",
"s#	c #8A89B8",
"t#	c #27279E",
"u#	c #1C1C99",
"v#	c #1C1C94",
"w#	c #15158E",
"x#	c #151588",
"y#	c #2B2B88",
"z#	c #404098",
"A#	c #4A4AA8",
"B#	c #3D3DA4",
"C#	c #3838A2",
"D#	c #2E2E9C",
"E#	c #00004C",
"F#	c #00002E",
"G#	c #3D3D8E",
"H#	c #4E4EA1",
"I#	c #22225F",
"J#	c #4C4A6A",
"K#	c #B9B4B4",
"L#	c #95919B",
"M#	c #000065",
"N#	c #E8E7E7",
"O#	c #E6E4E4",
"P#	c #D3D1D9",
"Q#	c #9795B9",
"R#	c #383597",
"S#	c #15158F",
"T#	c #151581",
"U#	c #151578",
"V#	c #151575",
"W#	c #32328A",
"X#	c #4040A0",
"Y#	c #2E2E95",
"Z#	c #000040",
"`#	c #000038",
" $	c #2E2E81",
".$	c #464698",
"+$	c #4C4C97",
"@$	c #151555",
"#$	c #928F97",
"$$	c #6D6A82",
"%$	c #000067",
"&$	c #E5E4E4",
"*$	c #E2E1E1",
"=$	c #DFDDDD",
"-$	c #D3D1D5",
";$	c #9D9CB6",
">$	c #444490",
",$	c #151582",
"'$	c #15157A",
")$	c #000072",
"!$	c #000069",
"~$	c #000063",
"{$	c #27277B",
"]$	c #353595",
"^$	c #3D3D8D",
"/$	c #3B3B65",
"($	c #B6B2B2",
"_$	c #272767",
":$	c #00006B",
"<$	c #E7E6E6",
"[$	c #E5E3E3",
"}$	c #E2E0E0",
"|$	c #DBD9D9",
"1$	c #D8D5D5",
"2$	c #D0CECF",
"3$	c #A4A1B3",
"4$	c #575589",
"5$	c #00006A",
"6$	c #000057",
"7$	c #87848E",
"8$	c #878490",
"9$	c #9C98A0",
"0$	c #000066",
"a$	c #00006E",
"b$	c #E4E3E3",
"c$	c #7373AF",
"d$	c #B9B7C8",
"e$	c #D9D6D7",
"f$	c #D7D4D4",
"g$	c #D3D1D1",
"h$	c #D0CDCD",
"i$	c #AAA7B2",
"j$	c #666385",
"k$	c #000042",
"l$	c #B3AEAF",
"m$	c #78758A",
"n$	c #00006D",
"o$	c #1C1C9B",
"p$	c #5755A0",
"q$	c #A5A3BA",
"r$	c #CDCACD",
"s$	c #7C7889",
"t$	c #3D3B72",
"u$	c #000076",
"v$	c #E6E5E5",
"w$	c #E3E2E2",
"x$	c #A09EC0",
"y$	c #4442A0",
"z$	c #1C1C97",
"A$	c #3B3B90",
"B$	c #908EA9",
"C$	c #C0BDC2",
"D$	c #ADA9AC",
"E$	c #A4A0A7",
"F$	c #000070",
"G$	c #000075",
"H$	c #00007A",
"I$	c #E3E1E1",
"J$	c #E0DEDE",
"K$	c #D8D5D7",
"L$	c #A8A7BE",
"M$	c #57579D",
"N$	c #15158D",
"O$	c #151586",
"P$	c #22227F",
"Q$	c #7B7896",
"R$	c #B2AEB4",
"S$	c #00005F",
"T$	c #000046",
"U$	c #6F6B82",
"V$	c #827F92",
"W$	c #00006F",
"X$	c #000074",
"Y$	c #000078",
"Z$	c #00007E",
"`$	c #DFDEDE",
" %	c #DCDADA",
".%	c #D8D6D6",
"+%	c #D4D0D1",
"@%	c #AFACBC",
"#%	c #696799",
"$%	c #15157F",
"%%	c #151577",
"&%	c #00005A",
"*%	c #15156E",
"=%	c #A5A1A7",
"-%	c #4E4C7C",
";%	c #000073",
">%	c #00007D",
",%	c #000081",
"'%	c #7776B1",
")%	c #C1BECC",
"!%	c #D4D2D2",
"~%	c #D1CECE",
"{%	c #CECACA",
"]%	c #151580",
"^%	c #AFAAAE",
"/%	c #9692A1",
"(%	c #777494",
"_%	c #484688",
":%	c #000086",
"<%	c #1C1CA1",
"[%	c #1C1C9E",
"}%	c #7473AA",
"|%	c #BAB8C4",
"1%	c #D1CDCD",
"2%	c #CDCACA",
"3%	c #87849F",
"4%	c #E1DFDF",
"5%	c #1C1C9A",
"6%	c #1C1C95",
"7%	c #706EA1",
"8%	c #B4B2BC",
"9%	c #000062",
"0%	c #151570",
"a%	c #404075",
"b%	c #6B6989",
"c%	c #878499",
"d%	c #9D99A5",
"e%	c #B1ADB0",
"f%	c #E4E2E2",
"g%	c #1C1C96",
"h%	c #151590",
"i%	c #15158A",
"j%	c #151583",
"k%	c #15157B",
"l%	c #000083",
"m%	c #7A7AB6",
"n%	c #C5C3D1",
"o%	c #1C1C91",
"p%	c #15158B",
"q%	c #151584",
"r%	c #15157C",
"s%	c #00007C",
"t%	c #15158C",
"u%	c #151585",
"v%	c #15157D",
"w%	c #000077",
"x%	c #00007B",
"y%	c #000080",
"z%	c #15157E",
"A%	c #00003D",
"B%	c #00007F",
"C%	c #1C1C93",
"D%	c #151576",
"E%	c #87849A",
"F%	c #151587",
"G%	c #151563",
"                                                                                                                                ",
"                                                                                                                                ",
"                                                                                                                                ",
"                                                      . . .                                                                     ",
"                                                  . . . . . . . .                                                               ",
"                                              . . . + @ # $ % . . . . .                                                         ",
"                                          . . . & * = = - ; > , ' ) ! . . . . .                                                 ",
"                                        . . ~ { ] ^ / ( _ : < [ } | 1 2 3 4 . . . . .                                           ",
"                                    . . . 5 6 7 8 9 0 - ; > a b c d e f g h i j k . . . . .                                     ",
"                                . . . l m n o p ^ / q _ : < [ } | r s t u v w x y z A B . .                                     ",
"                              . . C D E F n G 8 9 0 - H > a I c J e f g K w L M y N O P . .                                     ",
"                            . . Q R S T U o V W / q _ X < [ } | r Y t u h Z M `  ...+.@.. .                                     ",
"                            . . #.$.%.U n G ^ &.0 - H *.=.-.c J ;.>.,.K w x '.).!.~.@.@.. .                                     ",
"                            . . {.].^./.(.^ W = _.; X < :.<.| r Y t [.h Z M }.|.1.2.3.4.. .                                     ",
"                            . . 5.{.].6.7.8.9.0.- H a.=.-.b.J ;.>.,.v w c.d.1.1.e.f.g.4.. .                                     ",
"                            . . h.5.{.].6.7.i.j.k.l.I b <.| m.f t [.h n.|.1.1.o.p.g.g.q.. .                                     ",
"                            . . r.h.s.t.].6.7.i.j.u.u.v.w.x.;.>.u y.z.1.1.A.B.C.g.D.E.q.. .                                     ",
"                            . . F.r.G.H.^.].6.7.i.j.u.I.J.K.i L.M.|.1.1.N.O.P.g.Q.R.q.S.. .                                     ",
"                            . . T.F.U.V.5.^.].6.7.i.j.u.I.J.W.X.1.1.1.Y.Z.P.g.g.4.q.S.`.. .                                     ",
"                            . . k.T. +.+h.5.^.].6.7.i.j.u.I.J.W.1.1.++@+P.P.g.g.q.S.`.#+. .                                     ",
"                            . . $+k. +.+r.h.5.^.].6.7.i.j.u.I.J.1.1.%+P.@+&+g.g.*+S.`.#+. .                                     ",
"                            . . =+$+-+;+F.r.h.5.^.].6.7.i.j.u.I.1.1.P.>+,+4.g.g.S.`.#+'+. .                                     ",
"                            . . v.=+-+;+T.F.r.h.5.^.].6.7.i.j.u.1.1.)+!+4.4.g.g.`.#+~+{+. .                                     ",
"                            . . ]+v.^+;+k.T.F.r.h.5.^.].6.7.i.j.1.@.@.4.4.q.g.g.#+~+{+/+. .                                     ",
"                            . . (+]+H._+$+k.T.F.r.h.5.^.].6.7.i.@.@.4.4.q.*+g.g.#+{+/+:+. . . .                                 ",
"                          . . . <+(+.+_+=+$+k.T.F.r.h.5.^.].6.7.@.@.4.q.q.S.g.g.'+[+:+}+. . |+. . . .                           ",
"                        . . . . 2 <+.+1+v.=+$+k.T.F.r.h.5.^.].6.@.4.4.q.S.`.g.g.{+/+}+2+. . 3+4+5+~ . . . .                     ",
"                    . . . 6+. . 7+2 .+1+8+9+0+$+k.T.F.r.a+5.^.].4.4.q.S.`.#+g.g./+:+}+2+. . b+b+b+c+d+e+. . . .                 ",
"                  . . f+g+_ . . 7+7+;+1+h+i+j+k+l+k.T.F.r.a+5.^.4.q.S.S.`.~+g.m+:+}+n+o+. . b+b+b+b+p+q+r+s+t+. . . .           ",
"              . . . u+v+w+; . . 7+7+x+y+z+A+B+C+D+E+F+T.F.r.a+5.q.q.S.`.#+'+G+:+}+H+I+. ! J+b+b+b+K+L+M+M+M+=.N+O+! . . . .     ",
"            . . f+P+Q+R+_ ; . . S+T+2 7+U+V+W+C+X+Y+Z+`+ @r.r.a+q.S.`.#+'+{+:+}+.@+@. @@u.b+b+b+#@$@M+M+M+M+M+M+M+%@' &@. .     ",
"        . . . *@=@Q+] - -@;@>@& . . ,@'@)@2 !@~@{@]@^@/@/@(@r.r.S.`.#+~+{+/+_@:@. . <@[@b+b+b+}@[ M+M+M+M+M+M+M+M+M+|@0+. .     ",
"      . . f+1@2@3@Q+R+w+; 4@5@6@7@8@. . ! 9@0@(+a@b@c@/@/@T.(@r.S.#+~+{+/+d@I+. ! J+e@e@b+b+f@M+M+M+M+M+M+M+M+M+M+I g@h@. .     ",
"    . . *@i@2@j@Q+] - _ ;@4@k@,+l@m@n@o@. . . 8@p@(+0+q@r@$+T.(@`.#+'+[+s@+@. @@t@e@e@e@u@v@M+M+M+M+M+M+M+M+M+M+w@x@h@y@. .     ",
"    . . z@A@j@j@Q+R+w+; 4@5@B@C@l@D@E@F@G@H@I@. . J@K@L@=+=+M@T.#+'+N@3+. . <@O@e@e@e@P@Q@M+M+M+M+M+M+M+M+M+M+R@S@h@T@U@. .     ",
"    . . V@W@X@m@w+R+_ ; 4@k@B@l@m@Y@Z@`@ #.#n.+#B . . 4 @###$+M@~+$#%#. ! J+e@e@e@e@&#b M+M+M+M+M+M+M+M+M+M+*#=#=#-#;#>#. .     ",
"    . . V@W@,#'#)#!#~#;@5@B@C@l@D@E@F@{#]#^#/#(#_#:#<#. . ~ [#}#|#+@. ! <#X.1#e@e@2#M+M+M+M+M+M+M+M+M+M+|@3#4#5#6#/@7#8#. .     ",
"    . . V@W@,#9#0#a#b#c#d#B@e#m@Y@Z@F@ #]#^#f#g#h#5#i#! ~ . . . . . |+j#j#j#<#k#l#M+M+M+M+M+M+M+M+M+M+I m#4#5#h@n#o#p#q#. .     ",
"    . . V@W@r#s#t#u#v#w#x#y#z#A#A#Z@{#B#C#/#D#3+E#E#E#F#! ! . . . F#j#j#j#j#j#E#u@G#H#M+M+M+M+M+M+M+w@I#4#5#h@J#K#L#q#M#. .     ",
"    . . V@W@N#O#P#Q#R#S#x#T#U#V#W#X# #]#^#Y#k#E#E#E#E#Z#! ! . . `#j#j#j#j#j#j#W.V#V#V# $.$[ M+M+M++$@$E#5#h@y@#$/@$$M#%$. .     ",
"    . . V@W@N#&$*$=$-$;$>$,$'$)$!$~${$]$y#5#E#E#E#E#E#<@I@! . . j#j#j#j#j#j#i#e@V#V#V#V#V#u@^$H#*#4#E#4#=#y@/$($($_$%$:$. .     ",
"    . . V@V@<$[$}$=$|$1$2$3$4$O@5$~$>#6$E#E#E#E#E#E#E#E#@@! . . j#j#j#j#j#j#4+V#V#V#V#V#V#V#V#V#<@E#4#7$h@6$8$/@9$0$:$a$. .     ",
"    . . V@V@<$b$c$d$e$f$g$h$U.i$j$M#8#U@E#E#E#E#E#E#E#E#<#! . . j#j#j#j#j#k$1#V#V#V#V#V#V#V#V#V#<@4#7$/@y@3 l$/@m$5$n$)$. .     ",
"    . . V@V@<$b$'#o$p$q$r$h$G.H._+M#8#U@E#E#E#E#E#E#E#E#E#|+. . j#j#j#j#j#8#V#V#V#V#V#V#V#V#V#V#4#5#/@/@U@s$/@K#t$n$)$u$. .     ",
"    . . V@V@v$w$x$y$z$b#A$B$C$V._+M#8#U@E#E#E#E#E#E#E#E#E#`#. . j#j#j#j#Z#O@V#V#V#V#V#V#V#V#V#V#5#h@/@/@J+D$/@E$:$F$G$H$. .     ",
"    . . V@V@O#I$J$K$L$M$N$O$P$Q$R$0$S$U@E#E#E#E#E#E#E#E#E#T$. . j#j#j#j#U@V#V#V#V#V#V#V#V#V#V#V#=#h@/@/@U$/@/@V$W$X$Y$Z$. .     ",
"    . . V@V@&$I$`$ %.%+%@%#%$%%%a$%$q#&%E#E#E#E#E#E#E#E#E#E#. . j#j#j#j#*%V#V#V#V#V#V#V#V#V#V#V#h@6$/@/@=%/@/@-%;%Y$>%,%. .     ",
"    . . V@V@&$*$'%)%.%!%~%{%]%U#F$%$q#&%E#E#E#E#E#E#E#E#E#E#. . j#j#j#h@V#V#V#V#V#V#V#V#V#V#V#V#y@&%/@/@/@/@/@^%/%(%_%:%. .     ",
"    . . V@V@[$}$<%[%}%|%1%2%T#U#F$%$q#&%E#E#E#E#E#E#E#E#E#E#. . j#j#j#t@V#V#V#V#V#V#V#V#V#V#V#V#U@8#/@/@/@/@/@/@/@/@3%M#. .     ",
"    . . V@V@b$4%<%[%5%6%7%8%,$'$)$!$9%>#E#E#E#E#E#E#E#E#E#E#. . j#j#j#0%V#V#V#V#V#V#V#V#V#V#V#V#>#q#/@/@a%b%c%d%e%3%~$. . .     ",
"    . . V@V@f%4%<%[%5%g%h%i%j%k%O@5$~$8#E#E#E#E#E#E#E#E#E#E#. . j#j#j#J.V#V#V#V#V#V#V#V#V#V#V#V#S$9%/@/@W$X$Y$>%l%~$. . .       ",
"    . . V@V@m%n%<%'#o$z$o%p%q%r%1#:$M#8#E#E#E#E#E#E#E#E#<@+@. . j#j#j#J+V#V#V#V#V#V#V#V#V#V#V#V#q#M#/@/@;%Y$s%,%9%. . .         ",
"    . . 6$h%V@W@,#'#o$z$b#t%u%v%V#n$M#8#E#E#E#E#E#E#E#<@|+. . . ! @@j#=#V#V#V#V#V#V#V#V#V#V#V#V#M#!$/@/@w%x%y%9%. . .           ",
"      . . . 6$h%,#'#0#z$b#t%u%z%V#n$M#S$E#E#E#E#E#E#i#I@. . . . . . ! A%V#V#V#V#V#V#V#V#V#V#V#V#%$n$/@/@H$B%q#. . .             ",
"          . . . y@t%0#a#C%N$O$z%D%a$0$S$E#E#E#E#E#T$! . . .     . . . . A%W.V#V#V#V#V#V#V#V#V#V#:$F$/@E%Z$q#. . .               ",
"              . . . h@O$v#w#F%]%%%W$%$q#E#E#E#E#T$! . . .             . . . A%W.V#V#V#V#V#V#V#V#W$;%E%>%S$. . .                 ",
"                  . . . 4#r%x#]%U#F$%$q#E#E#E#<#~ . .                     . . . A%W.V#V#V#V#V#V#)$w%s%8#. . .                   ",
"                      . . . i#O@U#F$%$q#E#E#Z#~ . .                           . . . A%W.V#V#V#V#u$x%8#. . .                     ",
"                          . . . Z#G%5$~$E#A%. . .                                 . . . A%W.V#V#H$>#. . .                       ",
"                              . . . `#6$j#. . .                                     . . . . A%W.>#. . .                         ",
"                                  . . . . . .                                           . . . . . . .                           ",
"                                      . . .                                                 . . . .                             ",
"                                                                                                                                ",
"                                                                                                                                "};
