/* XPM */
static const char *icon_xpm[] = {
"64 64 2 1",
" 	c #000066",
".	c #CCCCCC",
"     .......................... ......                          ",
"     .......................... ......                          ",
"     .......................... ......                          ",
"     .......................... ......                          ",
"     .......................... ......                          ",
"     .......................... ......                          ",
"     ......                     ......                          ",
"     ......                     ......                          ",
"     ......                     ......                          ",
"     ......                     ......                          ",
"     ......                     ......                          ",
"     ......                     ......                          ",
"     ......                     ......                          ",
"     ....................       ......                          ",
"     ....................       ......                          ",
"     ....................       ......                          ",
"     ....................       ......                          ",
"     ....................       ......                          ",
"     ....................       ......                          ",
"     ......                     ......                          ",
"     ......                     ......                          ",
"     ......                     ......                          ",
"     ......                     ......                          ",
"     ......                     ......                          ",
"     ......                     ......                          ",
"     ......                     ......                          ",
"     ......                     ..........................      ",
"     ......                     ..........................      ",
"     ......                     ..........................      ",
"     ......                     ..........................      ",
"     ......                     ..........................      ",
"     ......                     ..........................      ",
"                                                                ",
"     .......................... ......            ........      ",
"     .......................... ......           ........       ",
"     .......................... ......          ........        ",
"     .......................... ......         ........         ",
"     .......................... ......        ........          ",
"     .......................... ......       ........           ",
"               ......           ......      ........            ",
"               ......           ......     ........             ",
"               ......           ......    ........              ",
"               ......           ......   ........               ",
"               ......           ......  ........                ",
"               ......           ...... ........                 ",
"               ......           ..............                  ",
"               ......           .............                   ",
"               ......           ............                    ",
"               ......           ...........                     ",
"               ......           ............                    ",
"               ......           .............                   ",
"               ......           ..............                  ",
"               ......           ...... ........                 ",
"               ......           ......  ........                ",
"               ......           ......   ........               ",
"               ......           ......    ........              ",
"               ......           ......     ........             ",
"               ......           ......      ........            ",
"               ......           ......       ........           ",
"               ......           ......        ........          ",
"               ......           ......         ........         ",
"               ......           ......          ........        ",
"               ......           ......           ........       ",
"               ......           ......            ........      "};
